<?xml version="1.0" encoding="UTF-8"?>
<svg id="Layer_1" xmlns="http://www.w3.org/2000/svg" version="1.1" viewBox="0 0 192 192">
  <!-- Generator: Adobe Illustrator 30.0.0, SVG Export Plug-In . SVG Version: 2.1.1 Build 123)  -->
  <path d="M116,127.01c-1.18,10.97-4.72,27.08-11.56,35.93-17.89,23.12-30.22-23.52-31.43-35.93h42.99Z"/>
  <path d="M76.5,66c-.43-.05-3.53-1.23-3.53-1.54,2.08-8.93,3.73-18.04,7.54-26.44,9.71-21.37,20.96-18.83,29.36,1.61,1.81,4.4,6.6,20.17,6.75,24.31.04,1.23-.17,1.3-1.12,2.06-12.27-1.11-27.06,1.5-39,0Z"/>
  <path d="M71,94c-.8-.8.59-19.71.99-22.53.2-1.39-.55-1.69,1.52-1.5l24.04,2.08,19.44-2.05,2.01,24.01h-48Z"/>
  <path d="M119,99l-2.14,22.86c-14.9-1.41-29.92-1.12-44.87.14l-.99-23.01h48Z"/>
  <path d="M40,94c-.36-10.34,2.33-20.38,5.56-30.04l21.33,5.14-.89,24.9h-26Z"/>
  <path d="M66,99l.56,24.07-20.94,5.01c-1.82-.38-6.58-25.34-5.63-29.08h26Z"/>
  <path d="M124,94l-1.58-24.03,22.01-5.01c3.65,9.28,4.06,19.28,5.57,29.04h-26Z"/>
  <path d="M150,99c-.81,3.79-3.22,28.55-6.47,28.86l-21.53-4.86,2.01-23.99h26Z"/>
  <path d="M142,132.01c-4.9,14.42-17.51,30.34-33,33.99,5.77-11.98,11.17-24.46,11.99-38l21,4.01Z"/>
  <path d="M108.01,25c12.45,4.83,24.24,15.2,30.51,26.98.78,1.47,4.03,6.82,3.04,8.06l-19.6,4.53c-2.27-8.65-3.84-17.49-7.19-25.84-1.92-4.76-4.87-9-6.75-13.74Z"/>
  <path d="M81,26.01c-2.7,5.82-5.94,11.35-8.01,17.48-2.25,6.69-3.27,13.65-5.07,20.44l-19.92-3.94c4.46-14.69,17.65-29.89,33-33.99Z"/>
  <path d="M67.99,127.99c2.39,13.64,5.74,27.69,14.01,39-9.63-2.27-19.38-10.4-25.42-18.07-1.71-2.18-8.27-12.56-8.46-14.59-.14-1.45.48-1.6,1.59-2.11,4.6-2.14,13.19-2.38,18.28-4.22Z"/>
  <path d="M169,94h-14c-.95-10.39-2.03-20.64-5.92-30.42l9.9-5.58c5.2,11.4,10.56,23.03,10.02,36Z"/>
  <path d="M169,99c-.35,12.01-3.62,25.03-10.6,34.94l-9.41-3.95c3.32-10.06,5.13-20.44,6-30.99h14Z"/>
  <path d="M35,94h-12.01c-2.2-2.24,6.25-29.55,9.12-33.38,2.47-3.3,6.36-.27,8.81,1.98-4.35,9.8-5.79,20.75-5.92,31.41Z"/>
  <path d="M35,98.99c.17,10.77,2.05,21.48,6.04,31.43l-7.5,3.6c-6.28-10.65-9.52-22.7-10.54-35.03h12.01Z"/>
  <path d="M154.96,54.95l-7.98,2.62c-4.67-10.46-10.91-18.6-18.98-26.57,6.22,2.05,13.19,7.05,18.01,11.48,1.9,1.74,10.45,10.29,8.95,12.47Z"/>
  <path d="M129,160.99c7.44-7.98,14.32-16.59,18.07-26.97l7.49,3.98c1.57,2.55-9.33,12.66-11.55,14.51-3.78,3.16-9.3,7.17-14.01,8.48Z"/>
  <path d="M58,157.99c-1.03.88-10.21-6.75-11.53-7.96-2.8-2.58-6.47-6.34-8.49-9.51-2.23-3.5,3.09-5.26,5.01-4.06,2.69,1.69,9.76,18.8,15.01,21.53Z"/>
  <path d="M57,35.01l-14.08,21.94-5.86-2c-.43-1.46.14-2.33.9-3.5,1.42-2.18,9.63-9.91,12.04-11.96.98-.84,6.24-5.19,7.01-4.48Z"/>
</svg>